<svg width="654" height="105" viewBox="0 0 654 105" fill="none" xmlns="http://www.w3.org/2000/svg">
<path fill-rule="evenodd" clip-rule="evenodd" d="M16.5198 15.8361L15.4966 20.2187H21.3117C23.1535 20.2187 24.3813 20.4916 25.0805 21.0202C25.7797 21.5148 26.1037 22.231 26.1037 23.1178C26.1037 23.7317 26.0355 24.3797 25.882 25.0277L11.9325 79.6491C11.2333 82.5993 9.52798 84.0658 6.78242 84.0658H2.05869L0.967285 88.4485H45.6296C50.7796 88.4485 55.6057 87.4935 60.0566 85.5665C64.5586 83.6395 67.7305 81.4567 69.5722 79.001C72.0961 75.6757 73.3751 71.8728 73.3751 67.5754C73.3751 62.7835 71.7039 58.8442 68.4467 55.7917C65.1214 52.688 60.3294 50.8633 54.0027 50.3176C62.0177 49.2262 67.7816 47.0434 71.2434 43.7351C74.7393 40.4267 76.4617 36.351 76.4617 31.4738C76.4617 26.8865 74.7735 23.1348 71.3628 20.2358C67.9692 17.3026 63.075 15.8531 56.7482 15.8531H16.5198V15.8361ZM40.9058 24.3797C41.3322 22.8449 41.9802 21.7876 42.9181 21.2249C43.856 20.6962 45.6125 20.4063 48.3069 20.4063C52.8601 20.4063 55.9808 21.0202 57.7032 22.1969C60.1077 23.9363 61.3355 26.8183 61.3355 30.8429C61.3355 34.5093 60.4658 37.7665 58.7264 40.6655C56.987 43.5304 54.6336 45.6621 51.6834 47.0263C49.4836 48.0495 46.9597 48.5441 44.1459 48.5441H34.7667L40.9058 24.3797ZM27.5532 83.1961C26.854 82.7698 26.4788 82.0706 26.4788 81.1327C26.4788 80.5017 26.5641 79.8196 26.7687 79.1034L33.4365 53.1655H44.1289C48.6139 53.1655 52.0245 54.1887 54.3778 56.3033C56.663 58.4008 57.8567 61.2657 57.8567 64.881C57.8567 68.3599 57.0381 71.7023 55.4351 74.8571C53.7639 78.012 51.7005 80.28 49.1596 81.7295C46.6528 83.1961 43.515 83.8783 39.7803 83.8783H31.8676C29.7019 83.8612 28.2353 83.6566 27.5532 83.1961Z" fill="#211E1F"/>
<path fill-rule="evenodd" clip-rule="evenodd" d="M125.489 15.8361L88.1429 76.7671C86.9321 78.7794 85.1244 80.6723 82.7199 82.4458C81.4751 83.3837 79.7697 83.8953 77.604 84.0488L76.5467 88.4314H101.41L102.433 84.0658H100.558C98.46 84.0658 96.8911 83.6054 95.9021 82.7016C94.8789 81.7807 94.3843 80.5188 94.3843 78.8817C94.3843 77.0911 94.9982 75.1129 96.2943 72.9642L100.933 65.4267H124.313L126.035 78.4724C126.171 79.0863 126.189 79.615 126.189 80.0924C126.189 81.4396 125.745 82.4458 124.841 83.1109C123.955 83.7759 122.266 84.0999 119.845 84.0999H117.474L116.4 88.4826H148.272L149.415 84.0999H147.283C145.083 84.0999 143.344 83.5883 142.031 82.531C141.059 81.7807 140.462 80.4335 140.223 78.4895L132.021 15.8872H125.489V15.8361ZM120.203 33.9636L123.631 59.9185H104.275L120.203 33.9636Z" fill="#211E1F"/>
<path fill-rule="evenodd" clip-rule="evenodd" d="M216.878 15.8361L215.684 20.2187H217.662C219.913 20.2187 221.687 20.8327 223.017 22.0946C224.347 23.3395 225.012 25.0277 225.012 27.1253C225.012 28.0291 224.791 29.291 224.432 30.7576L216.213 66.4158L192.816 15.8361H171.943L170.766 20.2187H173.154C175.797 20.2187 177.639 20.5939 178.679 21.3613C179.753 22.1457 180.265 23.203 180.265 24.5673C180.265 25.0959 180.111 25.9827 179.787 27.1253L167.304 73.9362C166.554 77.0229 165.19 79.4615 163.229 81.235C161.302 82.9744 158.795 83.8953 155.691 84.0488L154.651 88.4314H181.322L182.328 84.0488C179.242 83.9806 176.837 83.1791 175.234 81.6272C173.58 80.0924 172.761 78.029 172.761 75.5051C172.761 74.2944 173.017 72.7425 173.46 70.8496L184.17 30.8087L211.097 88.4485H216.469L229.941 29.9731C230.691 26.8013 232.038 24.2603 233.829 22.4015C235.159 21.0714 237.069 20.3722 239.576 20.2358L240.769 15.8531H216.878V15.8361Z" fill="#211E1F"/>
<path fill-rule="evenodd" clip-rule="evenodd" d="M292.15 15.8361L290.991 20.2187H292.833C294.572 20.2187 295.851 20.5598 296.704 21.2419C297.539 21.9241 297.966 22.8108 297.966 23.8852C297.966 25.3176 296.942 27.0059 294.913 28.9329L267.116 54.3421L274.432 25.5052C274.927 23.5271 275.592 22.1628 276.461 21.3783C277.297 20.6109 278.508 20.2358 280.128 20.2358H283.828L285.09 15.8531H252.741L251.683 20.2358H255.469C257.208 20.2358 258.453 20.4916 259.135 21.0543C259.903 21.5659 260.21 22.3163 260.21 23.2883C260.21 23.834 260.176 24.3456 260.005 24.8913L246.107 79.5297C245.732 81.1327 245.05 82.2753 244.112 82.9915C243.191 83.7077 241.792 84.0658 239.934 84.0658H237.12L235.977 88.4485H269.026L270.203 84.0658H265.258C263.467 84.0658 262.222 83.81 261.489 83.2814C260.79 82.7868 260.432 82.0706 260.432 81.1668C260.432 80.7746 260.466 80.3994 260.602 80.0583L265.07 62.3571L274.466 53.7794L286.011 79.1545C286.335 79.7684 286.455 80.3994 286.455 81.1156C286.455 81.9853 286.114 82.6845 285.431 83.2473C284.715 83.793 283.59 84.0488 282.004 84.0488H277.809L276.615 88.4314H309.05L310.193 84.0488C307.891 84.0488 306.322 83.8953 305.486 83.6395C304.173 83.2302 303.201 82.7357 302.519 82.1388C301.837 81.5249 301.291 80.6552 300.779 79.4956L284.818 44.3319L303.064 27.6369C305.964 24.8913 308.453 23.0325 310.466 22.0264C312.478 21.0543 314.865 20.4404 317.73 20.2187L318.873 15.8361H292.15Z" fill="#211E1F"/>
<path fill-rule="evenodd" clip-rule="evenodd" d="M458.351 15.8361L456.987 20.2187H462.376C464.371 20.2187 465.786 20.4745 466.485 21.0202C467.185 21.5148 467.543 22.231 467.543 23.186C467.543 23.6635 467.509 24.0728 467.372 24.5161L453.44 79.2739C452.655 82.4628 450.967 84.0658 448.341 84.0658H444.487L443.344 88.4485H477.945C484.459 88.4485 490.377 87.3741 495.646 85.2084C500.899 83.0597 505.179 80.1777 508.539 76.5965C511.898 73.0154 514.661 68.3428 516.809 62.5959C518.992 56.8149 520.049 50.9656 520.049 44.997C520.049 35.8565 517.577 28.6771 512.631 23.5441C507.669 18.377 500.489 15.8531 491.11 15.8531H458.351V15.8361ZM468.634 82.9403C468.054 82.4969 467.816 81.7637 467.816 80.7746C467.816 80.3653 467.85 79.9049 468.003 79.4103L482.089 24.0557C482.413 22.6914 483.078 21.7535 483.914 21.1908C484.715 20.6451 486.284 20.3893 488.654 20.3893C493.873 20.3893 497.744 21.9241 500.217 24.9425C503.099 28.4895 504.548 33.4179 504.548 39.7617C504.548 45.6621 503.61 51.8524 501.837 58.2985C500.029 64.7616 497.966 69.7071 495.561 73.1689C493.191 76.6477 490.445 79.2739 487.256 81.1156C484.084 82.9403 480.725 83.8441 477.229 83.8441H471.755C470.356 83.8612 469.282 83.5713 468.634 82.9403Z" fill="#211E1F"/>
<path fill-rule="evenodd" clip-rule="evenodd" d="M581.577 15.8361L580.468 20.2187H582.276C584.033 20.2187 585.329 20.5598 586.181 21.2419C587.017 21.9241 587.443 22.8108 587.443 23.8852C587.443 25.3176 586.42 27.0059 584.408 28.9329L556.56 54.3421L563.893 25.5052C564.404 23.5271 565.035 22.1628 565.888 21.3783C566.707 20.6109 567.986 20.2358 569.589 20.2358H573.272L574.534 15.8531H542.235L541.161 20.2358H544.93C546.686 20.2358 547.948 20.4916 548.613 21.0543C549.346 21.5659 549.705 22.3163 549.705 23.2883C549.705 23.834 549.619 24.3456 549.483 24.8913L535.584 79.5297C535.158 81.1327 534.51 82.2753 533.572 82.9915C532.651 83.7077 531.27 84.0658 529.377 84.0658H526.58L525.455 88.4485H558.47L559.629 84.0658H554.667C552.893 84.0658 551.666 83.81 550.949 83.2814C550.233 82.7868 549.875 82.0706 549.875 81.1668C549.875 80.7746 549.943 80.3994 550.011 80.0583L554.513 62.3571L563.944 53.7794L575.455 79.1545C575.762 79.7684 575.864 80.3994 575.864 81.1156C575.864 81.9853 575.523 82.6845 574.841 83.2473C574.142 83.793 573.016 84.0488 571.43 84.0488H567.235L566.059 88.4314H598.46L599.602 84.0488C597.334 84.0488 595.748 83.8953 594.912 83.6395C593.633 83.2302 592.61 82.7357 591.962 82.1388C591.297 81.5249 590.666 80.6552 590.206 79.4956L574.244 44.3319L592.508 27.6369C595.407 24.8913 597.863 23.0325 599.875 22.0264C601.887 21.0543 604.326 20.4404 607.174 20.2187L608.333 15.8361H581.577Z" fill="#211E1F"/>
<path fill-rule="evenodd" clip-rule="evenodd" d="M619.076 15.8361L618.036 20.2187H623.476C625.062 20.2187 626.171 20.4745 626.853 21.0202C627.484 21.5148 627.774 22.231 627.774 23.1689C627.774 23.7658 627.705 24.3797 627.552 25.0277L613.5 80.2289C612.886 82.8039 611.283 84.0658 608.589 84.0658H604.82L603.695 88.4485H636.982L638.091 84.0658H633.043C631.269 84.0658 629.922 83.7589 629.001 83.0938C628.405 82.6504 628.132 81.9342 628.132 80.911C628.132 80.5188 628.166 79.9901 628.319 79.4103L642.439 23.9534C642.763 22.6062 643.343 21.6512 644.111 21.0714C644.912 20.5086 646.259 20.2358 648.084 20.2358H652.057L653.183 15.8531H619.076V15.8361Z" fill="#211E1F"/>
<path fill-rule="evenodd" clip-rule="evenodd" d="M329.412 52.3469C329.412 72.8959 341.349 90.6142 358.692 99.0214C353.371 87.5617 347.863 75.7268 347.659 75.3175C347.335 74.5842 346.874 73.3052 347.249 71.8557C347.556 70.7643 348.801 68.8884 349.688 67.7459C351.41 65.5631 351.888 64.4205 352.144 62.8346L370.97 103.216C374.33 103.899 377.775 104.257 381.339 104.257L381.765 104.223C381.236 103.097 380.691 101.972 380.179 100.812C380.179 100.812 374.279 88.1244 368.702 76.1872L368.685 76.1702C363.842 65.7166 359.238 55.8598 359.084 55.4846C358.726 54.7684 358.266 53.4894 358.675 52.057C358.982 50.9655 360.244 49.0726 361.097 47.9471C362.836 45.7473 363.331 44.6047 363.569 43.0188L388.672 96.8557H388.654L391.605 103.234C394.794 102.586 397.812 101.648 400.711 100.488C397.3 93.1722 393.787 85.6688 391.622 81.0132H391.605C391.605 81.0132 370.885 36.5215 370.493 35.6859C370.169 34.9697 369.691 33.7077 370.135 32.2582C370.408 31.1839 371.652 29.291 372.573 28.1484C374.279 25.9656 374.773 24.823 374.995 23.2371L393.992 63.9601L409.033 96.2247C411.762 94.5023 414.285 92.5412 416.622 90.3754C412.12 80.6722 406.049 67.6777 403.081 61.2316L403.03 61.2486C403.03 61.2486 382.345 16.7398 381.953 15.9213C381.594 15.2221 381.151 13.926 381.543 12.4936C381.85 11.4022 383.078 9.50927 383.965 8.3667C385.704 6.1839 386.182 5.04133 386.421 3.45539L405.674 44.7752L423.392 82.7186C429.531 74.1579 433.266 63.7043 433.266 52.3469C433.266 23.6634 409.988 0.419922 381.339 0.419922C352.655 0.419922 329.412 23.6634 329.412 52.3469Z" fill="#DE2929"/>
</svg>
